<mxfile host="app.diagrams.net" modified="2024-07-19T03:46:40.113Z" agent="Mozilla/5.0 (Macintosh; Intel Mac OS X 10_15_7) AppleWebKit/537.36 (KHTML, like Gecko) Chrome/126.0.0.0 Safari/537.36" etag="Lz8nrSdLGfO1Xlu5pY6x" version="24.7.1" type="device">
  <diagram name="Page-1" id="oZJlcAyYHxREv3OVX5jt">
    <mxGraphModel dx="825" dy="503" grid="1" gridSize="10" guides="1" tooltips="1" connect="1" arrows="1" fold="1" page="1" pageScale="1" pageWidth="827" pageHeight="1169" math="0" shadow="0">
      <root>
        <mxCell id="0" />
        <mxCell id="1" parent="0" />
        <mxCell id="hZBscBSu2HAEM9pTOT4c-1" value="" style="rounded=0;whiteSpace=wrap;html=1;fillOpacity=0;strokeWidth=4;" vertex="1" parent="1">
          <mxGeometry x="80" y="200" width="730" height="290" as="geometry" />
        </mxCell>
        <mxCell id="hZBscBSu2HAEM9pTOT4c-2" value="" style="endArrow=none;html=1;rounded=0;entryX=0.233;entryY=0;entryDx=0;entryDy=0;entryPerimeter=0;exitX=0.233;exitY=1;exitDx=0;exitDy=0;exitPerimeter=0;strokeWidth=3;" edge="1" parent="1" source="hZBscBSu2HAEM9pTOT4c-1" target="hZBscBSu2HAEM9pTOT4c-1">
          <mxGeometry width="50" height="50" relative="1" as="geometry">
            <mxPoint x="150" y="260" as="sourcePoint" />
            <mxPoint x="200" y="210" as="targetPoint" />
          </mxGeometry>
        </mxCell>
        <mxCell id="hZBscBSu2HAEM9pTOT4c-3" value="" style="endArrow=none;html=1;rounded=0;entryX=0.233;entryY=0;entryDx=0;entryDy=0;entryPerimeter=0;exitX=0.233;exitY=1;exitDx=0;exitDy=0;exitPerimeter=0;strokeWidth=3;" edge="1" parent="1">
          <mxGeometry width="50" height="50" relative="1" as="geometry">
            <mxPoint x="450" y="490" as="sourcePoint" />
            <mxPoint x="450" y="200" as="targetPoint" />
          </mxGeometry>
        </mxCell>
        <mxCell id="hZBscBSu2HAEM9pTOT4c-4" value="" style="endArrow=none;html=1;rounded=0;entryX=0.233;entryY=0;entryDx=0;entryDy=0;entryPerimeter=0;exitX=0.233;exitY=1;exitDx=0;exitDy=0;exitPerimeter=0;strokeWidth=3;" edge="1" parent="1">
          <mxGeometry width="50" height="50" relative="1" as="geometry">
            <mxPoint x="640" y="490" as="sourcePoint" />
            <mxPoint x="640" y="200" as="targetPoint" />
          </mxGeometry>
        </mxCell>
        <mxCell id="hZBscBSu2HAEM9pTOT4c-5" value="" style="image;aspect=fixed;perimeter=ellipsePerimeter;html=1;align=center;shadow=0;dashed=0;spacingTop=3;image=img/lib/active_directory/mac_client.svg;" vertex="1" parent="1">
          <mxGeometry x="100" y="210" width="47" height="50" as="geometry" />
        </mxCell>
        <mxCell id="hZBscBSu2HAEM9pTOT4c-6" value="" style="image;aspect=fixed;perimeter=ellipsePerimeter;html=1;align=center;shadow=0;dashed=0;spacingTop=3;image=img/lib/active_directory/mac_client.svg;" vertex="1" parent="1">
          <mxGeometry x="270" y="210" width="47" height="50" as="geometry" />
        </mxCell>
        <mxCell id="hZBscBSu2HAEM9pTOT4c-7" value="" style="image;aspect=fixed;perimeter=ellipsePerimeter;html=1;align=center;shadow=0;dashed=0;spacingTop=3;image=img/lib/active_directory/mac_client.svg;" vertex="1" parent="1">
          <mxGeometry x="470" y="210" width="47" height="50" as="geometry" />
        </mxCell>
        <mxCell id="hZBscBSu2HAEM9pTOT4c-8" value="" style="image;aspect=fixed;perimeter=ellipsePerimeter;html=1;align=center;shadow=0;dashed=0;spacingTop=3;image=img/lib/active_directory/mac_client.svg;" vertex="1" parent="1">
          <mxGeometry x="660" y="210" width="47" height="50" as="geometry" />
        </mxCell>
        <mxCell id="hZBscBSu2HAEM9pTOT4c-9" value="" style="image;aspect=fixed;perimeter=ellipsePerimeter;html=1;align=center;shadow=0;dashed=0;spacingTop=3;image=img/lib/active_directory/database_server.svg;" vertex="1" parent="1">
          <mxGeometry x="200" y="430" width="41" height="50" as="geometry" />
        </mxCell>
        <mxCell id="hZBscBSu2HAEM9pTOT4c-10" value="" style="image;aspect=fixed;perimeter=ellipsePerimeter;html=1;align=center;shadow=0;dashed=0;spacingTop=3;image=img/lib/active_directory/database_server.svg;" vertex="1" parent="1">
          <mxGeometry x="393" y="430" width="41" height="50" as="geometry" />
        </mxCell>
        <mxCell id="hZBscBSu2HAEM9pTOT4c-11" value="" style="image;aspect=fixed;perimeter=ellipsePerimeter;html=1;align=center;shadow=0;dashed=0;spacingTop=3;image=img/lib/active_directory/database_server.svg;" vertex="1" parent="1">
          <mxGeometry x="590" y="430" width="41" height="50" as="geometry" />
        </mxCell>
        <mxCell id="hZBscBSu2HAEM9pTOT4c-12" value="" style="image;aspect=fixed;perimeter=ellipsePerimeter;html=1;align=center;shadow=0;dashed=0;spacingTop=3;image=img/lib/active_directory/database_server.svg;" vertex="1" parent="1">
          <mxGeometry x="760" y="430" width="41" height="50" as="geometry" />
        </mxCell>
        <mxCell id="hZBscBSu2HAEM9pTOT4c-18" value="&lt;font style=&quot;font-size: 24px;&quot;&gt;Internet&lt;/font&gt;" style="text;html=1;align=center;verticalAlign=middle;whiteSpace=wrap;rounded=0;" vertex="1" parent="1">
          <mxGeometry x="110" y="340" width="60" height="30" as="geometry" />
        </mxCell>
        <mxCell id="hZBscBSu2HAEM9pTOT4c-20" value="&lt;b&gt;FIRST TIRE&lt;/b&gt;" style="text;html=1;align=center;verticalAlign=middle;whiteSpace=wrap;rounded=0;" vertex="1" parent="1">
          <mxGeometry x="160" y="245" width="90" height="30" as="geometry" />
        </mxCell>
        <mxCell id="hZBscBSu2HAEM9pTOT4c-21" value="&lt;b&gt;FIRST TIRE&lt;/b&gt;" style="text;html=1;align=center;verticalAlign=middle;whiteSpace=wrap;rounded=0;" vertex="1" parent="1">
          <mxGeometry x="330" y="240" width="90" height="30" as="geometry" />
        </mxCell>
        <mxCell id="hZBscBSu2HAEM9pTOT4c-22" value="&lt;b&gt;SECOND TIRE&lt;/b&gt;" style="text;html=1;align=center;verticalAlign=middle;whiteSpace=wrap;rounded=0;" vertex="1" parent="1">
          <mxGeometry x="270" y="420" width="90" height="30" as="geometry" />
        </mxCell>
        <mxCell id="hZBscBSu2HAEM9pTOT4c-23" value="" style="endArrow=none;dashed=1;html=1;rounded=0;endSize=6;jumpSize=10;" edge="1" parent="1">
          <mxGeometry width="50" height="50" relative="1" as="geometry">
            <mxPoint x="250" y="340" as="sourcePoint" />
            <mxPoint x="450" y="340" as="targetPoint" />
          </mxGeometry>
        </mxCell>
        <mxCell id="hZBscBSu2HAEM9pTOT4c-24" value="" style="endArrow=none;dashed=1;html=1;rounded=0;" edge="1" parent="1">
          <mxGeometry width="50" height="50" relative="1" as="geometry">
            <mxPoint x="450" y="300" as="sourcePoint" />
            <mxPoint x="640" y="300" as="targetPoint" />
          </mxGeometry>
        </mxCell>
        <mxCell id="hZBscBSu2HAEM9pTOT4c-25" value="" style="endArrow=none;dashed=1;html=1;rounded=0;" edge="1" parent="1">
          <mxGeometry width="50" height="50" relative="1" as="geometry">
            <mxPoint x="450" y="400" as="sourcePoint" />
            <mxPoint x="640" y="400" as="targetPoint" />
          </mxGeometry>
        </mxCell>
        <mxCell id="hZBscBSu2HAEM9pTOT4c-26" value="" style="endArrow=none;dashed=1;html=1;rounded=0;" edge="1" parent="1">
          <mxGeometry width="50" height="50" relative="1" as="geometry">
            <mxPoint x="640" y="270" as="sourcePoint" />
            <mxPoint x="810" y="270" as="targetPoint" />
          </mxGeometry>
        </mxCell>
        <mxCell id="hZBscBSu2HAEM9pTOT4c-27" value="" style="endArrow=none;dashed=1;html=1;rounded=0;" edge="1" parent="1">
          <mxGeometry width="50" height="50" relative="1" as="geometry">
            <mxPoint x="640" y="320" as="sourcePoint" />
            <mxPoint x="810" y="320" as="targetPoint" />
          </mxGeometry>
        </mxCell>
        <mxCell id="hZBscBSu2HAEM9pTOT4c-28" value="" style="endArrow=none;dashed=1;html=1;rounded=0;" edge="1" parent="1">
          <mxGeometry width="50" height="50" relative="1" as="geometry">
            <mxPoint x="640" y="420" as="sourcePoint" />
            <mxPoint x="810" y="420" as="targetPoint" />
          </mxGeometry>
        </mxCell>
        <mxCell id="hZBscBSu2HAEM9pTOT4c-29" value="" style="endArrow=none;dashed=1;html=1;rounded=0;" edge="1" parent="1">
          <mxGeometry width="50" height="50" relative="1" as="geometry">
            <mxPoint x="640" y="370" as="sourcePoint" />
            <mxPoint x="810" y="370" as="targetPoint" />
          </mxGeometry>
        </mxCell>
        <mxCell id="hZBscBSu2HAEM9pTOT4c-30" value="&lt;b&gt;FIRST TIRE&lt;/b&gt;" style="text;html=1;align=center;verticalAlign=middle;whiteSpace=wrap;rounded=0;" vertex="1" parent="1">
          <mxGeometry x="720" y="200" width="90" height="30" as="geometry" />
        </mxCell>
        <mxCell id="hZBscBSu2HAEM9pTOT4c-31" value="&lt;b&gt;SECOND TIRE&lt;/b&gt;" style="text;html=1;align=center;verticalAlign=middle;whiteSpace=wrap;rounded=0;" vertex="1" parent="1">
          <mxGeometry x="650" y="270" width="90" height="30" as="geometry" />
        </mxCell>
        <mxCell id="hZBscBSu2HAEM9pTOT4c-32" value="&lt;b&gt;THIRD TIRE&lt;/b&gt;" style="text;html=1;align=center;verticalAlign=middle;whiteSpace=wrap;rounded=0;" vertex="1" parent="1">
          <mxGeometry x="448.5" y="400" width="90" height="30" as="geometry" />
        </mxCell>
        <mxCell id="hZBscBSu2HAEM9pTOT4c-33" value="&lt;b&gt;N TIRE&lt;/b&gt;" style="text;html=1;align=center;verticalAlign=middle;whiteSpace=wrap;rounded=0;" vertex="1" parent="1">
          <mxGeometry x="638.5" y="440" width="90" height="30" as="geometry" />
        </mxCell>
        <mxCell id="hZBscBSu2HAEM9pTOT4c-34" value="" style="endArrow=none;dashed=1;html=1;rounded=0;shape=link;edgeStyle=isometricEdgeStyle;elbow=vertical;exitX=0.75;exitY=0;exitDx=0;exitDy=0;" edge="1" parent="1" source="hZBscBSu2HAEM9pTOT4c-33">
          <mxGeometry width="50" height="50" relative="1" as="geometry">
            <mxPoint x="680" y="420" as="sourcePoint" />
            <mxPoint x="680" y="320" as="targetPoint" />
            <Array as="points">
              <mxPoint x="650" y="400" />
              <mxPoint x="660" y="390" />
              <mxPoint x="720" y="350" />
            </Array>
          </mxGeometry>
        </mxCell>
        <mxCell id="hZBscBSu2HAEM9pTOT4c-35" value="" style="shape=flexArrow;endArrow=classic;startArrow=classic;html=1;rounded=0;exitX=1;exitY=0;exitDx=0;exitDy=0;" edge="1" parent="1" source="hZBscBSu2HAEM9pTOT4c-22">
          <mxGeometry width="100" height="100" relative="1" as="geometry">
            <mxPoint x="270" y="410" as="sourcePoint" />
            <mxPoint x="360" y="275" as="targetPoint" />
          </mxGeometry>
        </mxCell>
        <mxCell id="hZBscBSu2HAEM9pTOT4c-36" value="" style="shape=flexArrow;endArrow=classic;startArrow=classic;html=1;rounded=0;exitX=1;exitY=0;exitDx=0;exitDy=0;" edge="1" parent="1">
          <mxGeometry width="100" height="100" relative="1" as="geometry">
            <mxPoint x="550" y="415" as="sourcePoint" />
            <mxPoint x="550" y="270" as="targetPoint" />
          </mxGeometry>
        </mxCell>
        <mxCell id="hZBscBSu2HAEM9pTOT4c-38" value="" style="shape=flexArrow;endArrow=classic;startArrow=classic;html=1;rounded=0;exitX=1;exitY=0.5;exitDx=0;exitDy=0;" edge="1" parent="1">
          <mxGeometry width="100" height="100" relative="1" as="geometry">
            <mxPoint x="764.5" y="435" as="sourcePoint" />
            <mxPoint x="764.5" y="260" as="targetPoint" />
          </mxGeometry>
        </mxCell>
        <mxCell id="hZBscBSu2HAEM9pTOT4c-39" value="" style="image;aspect=fixed;perimeter=ellipsePerimeter;html=1;align=center;shadow=0;dashed=0;spacingTop=3;image=img/lib/active_directory/generic_server.svg;" vertex="1" parent="1">
          <mxGeometry x="570" y="320" width="28.000000000000004" height="50" as="geometry" />
        </mxCell>
        <mxCell id="hZBscBSu2HAEM9pTOT4c-40" value="" style="image;aspect=fixed;perimeter=ellipsePerimeter;html=1;align=center;shadow=0;dashed=0;spacingTop=3;image=img/lib/active_directory/generic_server.svg;" vertex="1" parent="1">
          <mxGeometry x="778.6" y="275" width="22.4" height="40" as="geometry" />
        </mxCell>
        <mxCell id="hZBscBSu2HAEM9pTOT4c-41" value="" style="image;aspect=fixed;perimeter=ellipsePerimeter;html=1;align=center;shadow=0;dashed=0;spacingTop=3;image=img/lib/active_directory/generic_server.svg;" vertex="1" parent="1">
          <mxGeometry x="778.6" y="325" width="22.4" height="40" as="geometry" />
        </mxCell>
        <mxCell id="hZBscBSu2HAEM9pTOT4c-42" value="" style="image;aspect=fixed;perimeter=ellipsePerimeter;html=1;align=center;shadow=0;dashed=0;spacingTop=3;image=img/lib/active_directory/generic_server.svg;" vertex="1" parent="1">
          <mxGeometry x="778.6" y="370" width="22.4" height="40" as="geometry" />
        </mxCell>
        <mxCell id="hZBscBSu2HAEM9pTOT4c-43" value="" style="endArrow=classic;startArrow=classic;html=1;rounded=0;exitX=0.098;exitY=0;exitDx=0;exitDy=0;exitPerimeter=0;" edge="1" parent="1" source="hZBscBSu2HAEM9pTOT4c-9" target="hZBscBSu2HAEM9pTOT4c-5">
          <mxGeometry width="50" height="50" relative="1" as="geometry">
            <mxPoint x="120" y="370" as="sourcePoint" />
            <mxPoint x="170" y="320" as="targetPoint" />
          </mxGeometry>
        </mxCell>
        <mxCell id="hZBscBSu2HAEM9pTOT4c-45" value="&lt;b&gt;FIRST TIRE&lt;/b&gt;" style="text;html=1;align=center;verticalAlign=middle;whiteSpace=wrap;rounded=0;" vertex="1" parent="1">
          <mxGeometry x="530" y="215" width="90" height="30" as="geometry" />
        </mxCell>
        <mxCell id="hZBscBSu2HAEM9pTOT4c-46" value="&lt;b&gt;SECOND TIRE&lt;/b&gt;" style="text;html=1;align=center;verticalAlign=middle;whiteSpace=wrap;rounded=0;" vertex="1" parent="1">
          <mxGeometry x="448.5" y="320" width="90" height="30" as="geometry" />
        </mxCell>
        <mxCell id="hZBscBSu2HAEM9pTOT4c-47" value="Application Layer" style="text;html=1;align=center;verticalAlign=middle;whiteSpace=wrap;rounded=0;" vertex="1" parent="1">
          <mxGeometry x="464" y="360" width="60" height="30" as="geometry" />
        </mxCell>
        <mxCell id="hZBscBSu2HAEM9pTOT4c-48" value="Load Balancer" style="text;html=1;align=center;verticalAlign=middle;whiteSpace=wrap;rounded=0;" vertex="1" parent="1">
          <mxGeometry x="647" y="290" width="60" height="30" as="geometry" />
        </mxCell>
        <mxCell id="hZBscBSu2HAEM9pTOT4c-49" value="Application Layer" style="text;html=1;align=center;verticalAlign=middle;whiteSpace=wrap;rounded=0;" vertex="1" parent="1">
          <mxGeometry x="647" y="335" width="60" height="30" as="geometry" />
        </mxCell>
      </root>
    </mxGraphModel>
  </diagram>
</mxfile>
